<svg width="100" height="100" viewBox="0 0 100 100" fill="none" xmlns="http://www.w3.org/2000/svg">
<rect width="100" height="100" fill="white"/>
<path d="M42.125 38.1562V56.0938H51.0938C52.3229 56.0938 53.4792 55.8646 54.5625 55.4062C55.6458 54.9271 56.5938 54.2812 57.4062 53.4688C58.2188 52.6562 58.8542 51.7083 59.3125 50.625C59.7917 49.5208 60.0312 48.3542 60.0312 47.125C60.0312 45.8958 59.7917 44.7396 59.3125 43.6562C58.8542 42.5521 58.2188 41.5938 57.4062 40.7812C56.5938 39.9688 55.6458 39.3333 54.5625 38.875C53.4792 38.3958 52.3229 38.1562 51.0938 38.1562H42.125ZM42.125 74H33.1562V29.1875H51.0938C52.7396 29.1875 54.3229 29.4062 55.8438 29.8438C57.3646 30.2604 58.7812 30.8646 60.0938 31.6562C61.4271 32.4271 62.6354 33.3646 63.7188 34.4688C64.8229 35.5521 65.7604 36.7604 66.5312 38.0938C67.3229 39.4271 67.9271 40.8542 68.3438 42.375C68.7812 43.8958 69 45.4792 69 47.125C69 49.5833 68.5312 51.9062 67.5938 54.0938C66.6562 56.2604 65.375 58.1562 63.75 59.7812C62.125 61.4062 60.2188 62.6875 58.0312 63.625C55.8646 64.5625 53.5521 65.0312 51.0938 65.0312H42.125V74Z" fill="black"/>
</svg>
